<?xml version="1.0" standalone="no"?>
<!DOCTYPE svg PUBLIC "-//W3C//DTD SVG 20010904//EN"
 "http://www.w3.org/TR/2001/REC-SVG-20010904/DTD/svg10.dtd">
<svg version="1.0" xmlns="http://www.w3.org/2000/svg"
 width="3855.000000pt" height="2152.000000pt" viewBox="0 0 3855.000000 2152.000000"
 preserveAspectRatio="xMidYMid meet">

<g transform="translate(0.000000,2152.000000) scale(0.100000,-0.100000)"
fill="#000000" stroke="none">
<path d="M20695 13759 c-220 -21 -395 -170 -450 -384 -31 -121 -12 -276 46
-386 60 -111 189 -209 326 -244 31 -8 98 -15 148 -15 223 0 404 110 493 297
33 71 36 87 40 184 6 168 -35 283 -142 391 -122 123 -272 174 -461 157z"/>
<path d="M6265 13544 c-16 -2 -73 -9 -125 -15 -338 -37 -738 -173 -1042 -352
-283 -167 -596 -468 -777 -747 -141 -217 -257 -483 -321 -733 -64 -252 -84
-414 -84 -682 -1 -252 10 -363 55 -580 102 -485 303 -863 638 -1202 336 -340
697 -544 1174 -667 426 -110 928 -116 1329 -16 497 124 885 336 1208 660 365
367 598 839 685 1389 16 102 41 389 34 395 -4 3 -800 66 -840 66 -14 0 -18
-16 -23 -87 -26 -351 -79 -559 -201 -805 -236 -472 -711 -815 -1223 -883 -160
-22 -397 -19 -555 5 -372 58 -751 263 -989 535 -105 120 -165 208 -231 340
-156 312 -205 543 -194 915 8 277 53 474 162 705 223 474 610 799 1105 924
160 41 247 51 428 51 259 0 423 -31 646 -120 123 -49 278 -141 411 -245 109
-85 115 -92 87 -113 -45 -35 -410 -377 -403 -379 3 -1 240 -61 526 -133 286
-72 688 -174 894 -226 205 -52 377 -93 381 -92 7 3 -13 132 -81 513 -55 315
-99 571 -164 960 -64 379 -64 382 -73 369 -4 -5 -88 -85 -187 -178 -99 -94
-199 -188 -222 -209 l-42 -40 -83 75 c-367 331 -869 544 -1407 598 -95 9 -426
12 -496 4z"/>
<path d="M23631 13433 c-8 -21 -63 -157 -123 -303 -60 -146 -150 -362 -198
-480 -49 -118 -125 -303 -170 -410 -45 -107 -119 -287 -165 -400 -46 -113
-120 -293 -165 -400 -105 -249 -164 -391 -255 -615 -41 -99 -95 -229 -120
-290 -58 -136 -65 -153 -209 -505 -65 -156 -128 -308 -142 -337 -13 -30 -24
-56 -24 -58 0 -2 -20 -50 -44 -107 -111 -262 -304 -716 -357 -841 -33 -75 -59
-142 -59 -147 0 -6 159 -10 444 -10 l444 0 67 168 c37 92 80 199 95 237 16 39
63 153 104 255 42 102 88 212 101 245 13 33 42 101 63 150 l38 90 1147 3 1147
2 26 -57 c14 -32 43 -101 64 -153 21 -52 112 -268 203 -480 90 -212 170 -402
178 -422 l13 -38 443 0 c244 0 443 2 443 5 0 4 -65 165 -157 390 -25 61 -60
146 -78 190 -18 44 -72 172 -120 285 -48 113 -102 241 -120 285 -30 74 -81
195 -219 525 -29 69 -126 301 -216 515 -89 215 -218 523 -286 685 -69 162
-138 327 -154 365 -16 39 -76 183 -133 320 -58 138 -149 356 -202 485 -112
269 -311 745 -325 775 -5 11 -18 41 -29 68 l-20 47 -458 0 -459 0 -13 -37z
m601 -1235 c71 -178 164 -408 208 -513 154 -371 260 -632 454 -1108 30 -76 60
-146 66 -157 11 -20 4 -20 -850 -20 -473 0 -860 2 -860 4 0 3 38 98 192 481
36 88 89 221 118 295 29 74 61 153 70 175 32 72 367 917 416 1047 26 70 49
126 52 123 2 -2 62 -149 134 -327z"/>
<path d="M11372 12234 c-156 -22 -278 -60 -417 -129 -148 -73 -267 -159 -374
-269 -40 -42 -74 -76 -75 -76 -1 0 -2 21 -2 48 1 26 0 122 -2 215 l-2 167
-385 0 -385 0 0 -1830 0 -1830 413 0 412 0 -2 937 c-1 516 3 1015 7 1108 17
336 89 525 265 700 169 169 385 247 633 231 107 -7 232 -45 318 -97 134 -81
245 -241 299 -433 53 -187 55 -233 55 -1314 0 -548 3 -1027 7 -1064 l6 -68
403 0 404 0 0 1018 c0 601 4 1056 10 1111 41 391 226 666 530 788 123 49 173
58 330 58 155 0 219 -14 329 -70 156 -79 276 -243 326 -443 44 -177 45 -219
45 -1303 0 -570 3 -1064 6 -1098 l7 -61 413 0 414 0 0 1128 c0 1205 -4 1318
-50 1532 -112 513 -416 863 -869 999 -128 39 -211 51 -387 58 -303 11 -517
-31 -782 -153 -177 -81 -385 -248 -504 -404 -15 -19 -29 -32 -31 -30 -2 3 -29
39 -60 82 -109 146 -287 293 -457 378 -216 109 -565 156 -848 114z"/>
<path d="M17855 12235 c-346 -55 -627 -203 -832 -439 l-43 -49 0 222 0 221
-390 0 -390 0 0 -1830 0 -1830 405 0 405 0 0 1003 c0 641 4 1034 11 1092 12
106 48 246 88 343 155 382 536 594 954 531 281 -42 481 -226 565 -519 57 -198
55 -154 59 -1348 l4 -1102 407 2 407 3 0 1165 c0 1225 0 1228 -46 1460 -28
137 -69 260 -133 395 -176 368 -533 619 -966 680 -132 18 -391 18 -505 0z"/>
<path d="M28237 12239 c-38 -5 -123 -23 -190 -40 -582 -147 -1026 -575 -1202
-1159 -104 -345 -111 -749 -18 -1105 157 -604 640 -1071 1253 -1211 8 -1 47
-10 85 -19 106 -25 420 -31 565 -12 132 18 321 75 445 135 119 59 246 154 350
265 l93 98 7 -77 c10 -98 -2 -317 -21 -412 -61 -297 -226 -543 -446 -665 -85
-47 -217 -93 -330 -113 -127 -23 -415 -23 -558 0 -362 58 -695 198 -923 388
-27 23 -52 37 -57 32 -8 -9 -207 -364 -297 -533 l-51 -94 46 -39 c210 -176
542 -331 885 -413 694 -167 1419 -80 1882 227 95 62 295 258 352 343 60 90
131 221 165 305 16 41 36 91 44 110 44 110 90 352 104 549 5 75 11 868 13
1764 l5 1627 -389 0 -389 0 0 -215 c0 -118 -3 -215 -6 -215 -4 0 -47 38 -95
85 -196 189 -473 327 -764 381 -105 19 -453 28 -558 13z m598 -740 c113 -23
218 -64 319 -123 84 -49 231 -187 292 -272 172 -241 234 -611 153 -920 -84
-325 -318 -592 -608 -695 -248 -87 -566 -77 -811 26 -180 76 -331 208 -438
385 -115 191 -170 460 -142 694 32 265 129 475 299 646 167 169 372 261 616
278 132 9 199 5 320 -19z"/>
<path d="M32685 12239 c-301 -31 -640 -162 -875 -337 -387 -289 -643 -743
-706 -1257 -23 -183 -15 -514 16 -675 56 -294 176 -572 341 -792 254 -339 706
-592 1199 -671 221 -36 556 -29 760 15 52 11 104 22 115 24 43 8 253 84 328
119 211 98 394 237 539 407 l40 48 -144 152 c-79 84 -183 201 -231 259 l-88
106 -72 -71 c-183 -182 -386 -286 -643 -331 -191 -33 -490 -13 -655 44 -323
111 -583 367 -678 666 -16 50 -31 105 -34 123 l-6 32 1379 0 1380 0 0 184 c0
395 -42 662 -147 926 -227 574 -725 954 -1343 1025 -143 16 -343 18 -475 4z
m416 -694 c309 -54 560 -262 679 -560 30 -73 80 -251 80 -281 0 -12 -148 -14
-970 -14 -533 1 -971 4 -973 8 -3 4 6 52 18 108 40 177 138 347 276 480 154
148 325 234 524 264 87 13 279 11 366 -5z"/>
<path d="M20350 10360 l0 -1830 410 0 410 0 0 1830 0 1830 -410 0 -410 0 0
-1830z"/>
</g>
</svg>
